<svg xmlns="http://www.w3.org/2000/svg" width="24" height="24" fill="none"><path fill="currentColor" d="M9.99 3.031a1.7 1.7 0 0 0-.9.465L5.705 6.88l-.002.004A.4.4 0 0 1 5.418 7H3c-1.093 0-2 .907-2 2v6c0 1.093.907 2 2 2h2.418a.4.4 0 0 1 .285.117l.002.002 3.383 3.385a1.74 1.74 0 0 0 1.86.371A1.74 1.74 0 0 0 12 19.297V4.7a1.74 1.74 0 0 0-1.053-1.574 1.73 1.73 0 0 0-.957-.096M10 5.416v13.17l-2.877-2.879A2.4 2.4 0 0 0 5.413 15H3V9h2.412a2.4 2.4 0 0 0 1.707-.705zm6.14 2.594a1 1 0 0 0-.74.19 1 1 0 0 0-.2 1.4 3.99 3.99 0 0 1 0 4.8 1 1 0 0 0 .2 1.4 1 1 0 0 0 1.4-.2 6.01 6.01 0 0 0 0-7.2 1 1 0 0 0-.66-.39"/><path fill="currentColor" d="M18.656 4.93a1 1 0 0 0 0 1.414 7.983 7.983 0 0 1 0 11.312 1 1 0 0 0 0 1.414 1 1 0 0 0 1.414 0c3.897-3.897 3.897-10.243 0-14.14a1 1 0 0 0-1.414 0" opacity=".3"/></svg>